<svg width="56" height="56" viewBox="0 0 56 56" fill="none" xmlns="http://www.w3.org/2000/svg">
<g filter="url(#filter0_d_512_29094)">
<path d="M27 51C40.2548 51 51 40.2548 51 27C51 13.7452 40.2548 3 27 3C13.7452 3 3 13.7452 3 27C3 40.2548 13.7452 51 27 51Z" fill="white"/>
</g>
<path d="M42.3968 18.6363C43.8941 21.204 44.7476 24.184 44.7476 27.3738C44.7476 36.9721 36.9721 44.7476 27.3738 44.7476C17.7755 44.7476 10 36.9721 10 27.3738C10 17.7755 17.7828 10 27.3738 10C31.1277 10 34.5996 11.1935 37.4422 13.2115" stroke="#1E984F" stroke-width="2.27" stroke-linecap="round" stroke-linejoin="round"/>
<path d="M13.3706 27.3738H15.0487" stroke="#1E984F" stroke-width="2.27" stroke-linecap="round" stroke-linejoin="round"/>
<path d="M27.374 41.377V39.699" stroke="#1E984F" stroke-width="2.27" stroke-linecap="round" stroke-linejoin="round"/>
<path d="M27.3733 29.7317L46.5843 10.4195L27.3733 25.3919L20.1475 21.3414L27.3733 29.7317Z" stroke="#1E984F" stroke-width="2.27" stroke-linecap="round" stroke-linejoin="round"/>
<path d="M41.384 27.3738H39.6987" stroke="#1E984F" stroke-width="2.27" stroke-linecap="round" stroke-linejoin="round"/>
<path d="M27.374 41.377V38.0209" stroke="#1E984F" stroke-width="2.27" stroke-linecap="round" stroke-linejoin="round"/>
<path d="M13.3706 27.3738H16.7267" stroke="#1E984F" stroke-width="2.27" stroke-linecap="round" stroke-linejoin="round"/>
<path d="M27.374 13.3706V16.7267" stroke="#1E984F" stroke-width="2.27" stroke-linecap="round" stroke-linejoin="round"/>
<path d="M41.3844 27.3738H38.021" stroke="#1E984F" stroke-width="2.27" stroke-linecap="round" stroke-linejoin="round"/>
<defs>
<filter id="filter0_d_512_29094" x="0.44" y="0.44" width="54.84" height="54.84" filterUnits="userSpaceOnUse" color-interpolation-filters="sRGB">
<feFlood flood-opacity="0" result="BackgroundImageFix"/>
<feColorMatrix in="SourceAlpha" type="matrix" values="0 0 0 0 0 0 0 0 0 0 0 0 0 0 0 0 0 0 127 0" result="hardAlpha"/>
<feOffset dx="0.86" dy="0.86"/>
<feGaussianBlur stdDeviation="1.71"/>
<feColorMatrix type="matrix" values="0 0 0 0 0 0 0 0 0 0 0 0 0 0 0 0 0 0 0.25 0"/>
<feBlend mode="normal" in2="BackgroundImageFix" result="effect1_dropShadow_512_29094"/>
<feBlend mode="normal" in="SourceGraphic" in2="effect1_dropShadow_512_29094" result="shape"/>
</filter>
</defs>
</svg>
