<svg width="40" height="40" viewBox="0 0 40 40" fill="none" xmlns="http://www.w3.org/2000/svg">
<g filter="url(#filter0_d_201_17)">
<path d="M19 35C27.8366 35 35 27.8366 35 19C35 10.1634 27.8366 3 19 3C10.1634 3 3 10.1634 3 19C3 27.8366 10.1634 35 19 35Z" fill="white"/>
</g>
<path d="M21 23H20.3333C19.597 23 19 22.4031 19 21.6667V18.3333C19 17.9651 18.7015 17.6667 18.3333 17.6667H17.6667" stroke="#1E984F" stroke-width="1.25" stroke-linecap="round" stroke-linejoin="round"/>
<path d="M18.6667 14.3333C18.4826 14.3333 18.3333 14.4826 18.3333 14.6667C18.3333 14.8508 18.4826 15 18.6667 15C18.8508 15 19 14.8508 19 14.6667C19 14.4826 18.8508 14.3333 18.6667 14.3333V14.3333" stroke="#1E984F" stroke-width="1.25" stroke-linecap="round" stroke-linejoin="round"/>
<path fill-rule="evenodd" clip-rule="evenodd" d="M19 29C24.5228 29 29 24.5228 29 19C29 13.4772 24.5228 9 19 9C13.4772 9 9 13.4772 9 19C9 24.5228 13.4772 29 19 29Z" stroke="#1E984F" stroke-width="1.25" stroke-linecap="round" stroke-linejoin="round"/>
<defs>
<filter id="filter0_d_201_17" x="0.44" y="0.44" width="38.84" height="38.84" filterUnits="userSpaceOnUse" color-interpolation-filters="sRGB">
<feFlood flood-opacity="0" result="BackgroundImageFix"/>
<feColorMatrix in="SourceAlpha" type="matrix" values="0 0 0 0 0 0 0 0 0 0 0 0 0 0 0 0 0 0 127 0" result="hardAlpha"/>
<feOffset dx="0.86" dy="0.86"/>
<feGaussianBlur stdDeviation="1.71"/>
<feColorMatrix type="matrix" values="0 0 0 0 0 0 0 0 0 0 0 0 0 0 0 0 0 0 0.25 0"/>
<feBlend mode="normal" in2="BackgroundImageFix" result="effect1_dropShadow_201_17"/>
<feBlend mode="normal" in="SourceGraphic" in2="effect1_dropShadow_201_17" result="shape"/>
</filter>
</defs>
</svg>
